<svg width="232" height="232" viewBox="0 0 232 232" fill="none" xmlns="http://www.w3.org/2000/svg">
  <circle cx="116" cy="116" r="116" fill="#D0E384"/>
  <path d="M157.426 104.499H157.524V116.497C157.524 120.961 155.226 126.617 149.965 128.107L148.604 128.493L148.234 129.858C147.275 133.395 145.007 136.652 141.142 137.778L139.797 138.17L139.429 139.523C138.837 141.704 137.747 143.79 136.117 145.307C134.531 146.781 132.324 147.827 129.207 147.827H113.403H112.295L111.551 148.647L99.668 161.74C99.6676 161.741 99.6671 161.741 99.6666 161.742C98.3032 163.238 96.0729 164.5 93.812 164.5C92.1445 164.5 90.2467 163.868 88.3082 161.74L75.1203 147.263C73.9176 145.877 72.8032 143.744 72.5526 141.393C72.3107 139.124 72.8564 136.57 75.0987 134.083L78.2148 130.711L78.8786 129.992V129.014V110.651L97.7733 89.9091L98.0461 89.6096L98.2104 89.2392C100.379 84.3503 104.455 80.335 111.598 80.335H123H124.109L124.853 79.5132L132.315 71.2731C133.581 69.9502 135.451 68.8061 137.422 68.5529C139.254 68.3176 141.442 68.8067 143.695 71.258C143.696 71.2592 143.697 71.2605 143.698 71.2618L156.88 85.732C158.08 87.1152 159.196 89.2595 159.447 91.6193C159.69 93.8956 159.143 96.4431 156.912 98.8991L155.607 100.284L151.635 104.499H157.426ZM136.11 135.829V133.496H138.012C140.511 133.496 142.422 132.511 143.599 130.828C144.669 129.298 144.914 127.5 144.914 126.163V123.83H146.817C149.316 123.83 151.227 122.845 152.404 121.162C153.474 119.632 153.719 117.834 153.719 116.497V111.665V109.165H151.219H120.402H117.902V111.665C117.902 114.158 117.136 117.246 115.405 119.642C113.745 121.939 111.171 123.663 107.195 123.663C103.219 123.663 100.646 121.939 98.986 119.642C97.2544 117.246 96.4881 114.158 96.4881 111.665V103.98V97.5236L92.14 102.297L83.3352 111.962L82.6834 112.678V113.646V132.015L77.6562 137.576C77.6552 137.577 77.6542 137.578 77.6532 137.58C77.6447 137.589 77.6355 137.599 77.6254 137.61C77.3736 137.884 76.6322 138.691 76.4085 139.888C76.1401 141.324 76.6869 142.656 77.6455 143.781L77.6737 143.814L77.703 143.846L90.8633 158.245C90.8637 158.245 90.8641 158.246 90.8645 158.246C90.8734 158.256 90.884 158.268 90.8962 158.281C91.1235 158.536 91.9157 159.422 93.1528 159.701C94.7654 160.064 96.1419 159.286 97.144 158.257L97.173 158.227L97.201 158.196L110.897 143.161H129.207C131.706 143.161 133.617 142.176 134.794 140.493C135.864 138.963 136.11 137.165 136.11 135.829ZM145.012 104.499H146.12L146.865 103.677L154.344 95.4185C154.345 95.4176 154.345 95.4167 154.346 95.4158C154.355 95.4064 154.364 95.3961 154.375 95.3849C154.626 95.1108 155.368 94.3037 155.592 93.1067C155.86 91.6706 155.313 90.3386 154.354 89.2137L154.326 89.1807L154.297 89.1486L141.137 74.75C141.137 74.7499 141.137 74.7498 141.136 74.7497C141.127 74.7396 141.116 74.7275 141.104 74.7133C140.877 74.459 140.084 73.5724 138.847 73.2938C137.235 72.9307 135.858 73.7087 134.856 74.7377L134.827 74.7675L134.799 74.7983L125.505 85.0006H111.598C106.602 85.0006 103.596 87.4065 101.991 90.2809C100.496 92.9583 100.293 95.871 100.293 97.1662V111.665C100.293 113.001 100.538 114.799 101.608 116.329C102.785 118.012 104.696 118.997 107.195 118.997C109.694 118.997 111.605 118.012 112.782 116.329C113.852 114.799 114.098 113.001 114.098 111.665V104.499H145.012Z" stroke="#00A1AB" stroke-width="5"/>
</svg>
