<svg width="52" height="64" viewBox="0 0 52 64" fill="none" xmlns="http://www.w3.org/2000/svg">
  <path d="M45.913 34.4C45.913 29.984 42.342 26.4 37.942 26.4C36.2522 26.4 34.6899 26.912 33.4783 27.808V27.2C33.4783 22.784 29.9072 19.2 25.5072 19.2C21.1072 19.2 17.5362 22.784 17.5362 27.2V27.808C16.3246 26.912 14.7623 26.4 13.0725 26.4C8.67247 26.4 5.10145 29.984 5.10145 34.4C5.10145 37.568 6.98261 40.32 9.66087 41.6C6.98261 42.88 5.10145 45.6 5.10145 48.8C5.10145 53.216 8.67247 56.8 13.0725 56.8C14.7623 56.8 16.3246 56.256 17.5362 55.392V56C17.5362 60.416 21.1072 64 25.5072 64C29.9072 64 33.4783 60.416 33.4783 56V55.392C34.6899 56.256 36.2522 56.8 37.942 56.8C42.342 56.8 45.913 53.216 45.913 48.8C45.913 45.6 44.0319 42.88 41.3536 41.6C44.0319 40.32 45.913 37.568 45.913 34.4ZM25.5072 49.6C21.1072 49.6 17.5362 46.016 17.5362 41.6C17.5362 37.184 21.1072 33.6 25.5072 33.6C29.9072 33.6 33.4783 37.184 33.4783 41.6C33.4783 46.016 29.9072 49.6 25.5072 49.6ZM22.3188 12.8C22.3188 11.04 23.7536 9.6 25.5072 9.6C27.2609 9.6 28.6957 11.04 28.6957 12.8C28.6957 14.56 27.2609 16 25.5072 16C23.7536 16 22.3188 14.56 22.3188 12.8ZM9.56522 19.2C9.56522 17.44 11 16 12.7536 16C14.5072 16 15.942 17.44 15.942 19.2C15.942 20.96 14.5072 22.4 12.7536 22.4C11 22.4 9.56522 20.96 9.56522 19.2ZM3.18841 12.8C1.43478 12.8 0 11.36 0 9.6C0 7.84 1.43478 6.4 3.18841 6.4C4.94203 6.4 6.37681 7.84 6.37681 9.6C6.37681 11.36 4.94203 12.8 3.18841 12.8ZM12.7536 3.2C12.7536 1.44 14.1884 0 15.942 0C17.6957 0 19.1304 1.44 19.1304 3.2C19.1304 4.96 17.6957 6.4 15.942 6.4C14.1884 6.4 12.7536 4.96 12.7536 3.2ZM31.8841 3.2C31.8841 1.44 33.3188 0 35.0725 0C36.8261 0 38.2609 1.44 38.2609 3.2C38.2609 4.96 36.8261 6.4 35.0725 6.4C33.3188 6.4 31.8841 4.96 31.8841 3.2ZM51.0145 9.6C51.0145 11.36 49.5797 12.8 47.8261 12.8C46.0725 12.8 44.6377 11.36 44.6377 9.6C44.6377 7.84 46.0725 6.4 47.8261 6.4C49.5797 6.4 51.0145 7.84 51.0145 9.6ZM38.2609 16C40.0145 16 41.4493 17.44 41.4493 19.2C41.4493 20.96 40.0145 22.4 38.2609 22.4C36.5072 22.4 35.0725 20.96 35.0725 19.2C35.0725 17.44 36.5072 16 38.2609 16Z" fill="#00A1AB"/>
</svg>
